<svg width="240" height="192" viewBox="0 0 240 192" fill="none" xmlns="http://www.w3.org/2000/svg">
<path d="M45.8716 2.47223C44.4262 0.960155 42.4462 0.0743005 40.3556 0.0044646C38.265 -0.0653713 36.2302 0.68637 34.6872 2.09862C33.1442 3.51088 32.2157 5.4713 32.1006 7.55987C31.9855 9.64843 32.693 11.699 34.0716 13.2722L53.2716 34.3722C16.9716 56.6722 1.37155 91.0722 0.671554 92.6722C0.22853 93.6985 0 94.8045 0 95.9222C0 97.04 0.22853 98.146 0.671554 99.1722C0.971554 99.8722 9.47155 118.672 28.2716 137.572C53.3716 162.572 85.0716 175.872 119.972 175.872C137.901 175.944 155.648 172.265 172.072 165.072L194.072 189.272C194.821 190.091 195.732 190.745 196.748 191.193C197.764 191.641 198.862 191.872 199.972 191.872C201.967 191.853 203.887 191.106 205.372 189.772C206.158 189.07 206.796 188.218 207.248 187.266C207.7 186.314 207.957 185.281 208.003 184.228C208.05 183.175 207.885 182.123 207.519 181.134C207.153 180.146 206.593 179.241 205.872 178.472L45.8716 2.47223ZM93.1716 78.3722L134.872 124.172C130.285 126.612 125.167 127.883 119.972 127.872C114.204 127.874 108.544 126.317 103.589 123.366C98.6335 120.415 94.568 116.179 91.8221 111.108C89.0762 106.036 87.752 100.317 87.9896 94.5542C88.2271 88.7918 90.0176 83.2007 93.1716 78.3722ZM119.972 159.872C89.1716 159.872 62.2716 148.672 40.0716 126.572C30.8743 117.556 23.087 107.207 16.9716 95.8722C21.6716 87.0722 36.7716 62.3722 64.2716 46.4722L82.2716 66.2722C75.3333 75.1951 71.7664 86.2802 72.1993 97.5749C72.6321 108.87 77.0369 119.649 84.6377 128.015C92.2386 136.381 102.548 141.796 113.749 143.306C124.951 144.817 136.326 142.326 145.872 136.272L160.572 152.472C147.613 157.43 133.846 159.939 119.972 159.872ZM239.272 99.1722C238.872 100.072 228.772 122.472 205.872 142.972C204.403 144.255 202.521 144.965 200.572 144.972C199.45 144.986 198.339 144.75 197.319 144.284C196.299 143.817 195.395 143.13 194.672 142.272C193.969 141.491 193.427 140.579 193.077 139.588C192.726 138.597 192.575 137.547 192.631 136.498C192.686 135.449 192.948 134.42 193.401 133.472C193.855 132.524 194.49 131.675 195.272 130.972C206.448 120.946 215.818 109.073 222.972 95.8722C216.839 84.5184 209.054 74.1384 199.872 65.0722C177.672 43.0722 150.772 31.8722 119.972 31.8722C113.471 31.8461 106.98 32.3814 100.572 33.4722C98.4798 33.7918 96.3462 33.2801 94.6268 32.0467C92.9075 30.8133 91.7391 28.956 91.3716 26.8722C91.2 25.8347 91.2347 24.7735 91.4736 23.7494C91.7125 22.7253 92.1511 21.7583 92.7641 20.9038C93.3771 20.0493 94.1525 19.3241 95.0461 18.7696C95.9396 18.2151 96.9338 17.8422 97.9716 17.6722C105.242 16.4609 112.601 15.8588 119.972 15.8722C154.872 15.8722 186.572 29.1722 211.672 54.1722C230.472 73.0722 238.972 91.8722 239.272 92.6722C239.715 93.6985 239.943 94.8045 239.943 95.9222C239.943 97.04 239.715 98.146 239.272 99.1722ZM125.972 64.4722C124.934 64.2753 123.946 63.8759 123.063 63.2969C122.179 62.7179 121.419 61.9706 120.825 61.0977C119.625 59.3349 119.174 57.1674 119.572 55.0722C119.969 52.977 121.183 51.1257 122.946 49.9254C124.709 48.7252 126.876 48.2744 128.972 48.6722C139.172 50.6673 148.458 55.8998 155.448 63.5924C162.438 71.2851 166.76 81.0275 167.772 91.3722C167.966 93.4799 167.318 95.5789 165.969 97.2095C164.619 98.8402 162.678 99.8696 160.572 100.072H159.772C157.792 100.08 155.882 99.3445 154.419 98.0111C152.956 96.6778 152.047 94.8439 151.872 92.8722C151.181 85.983 148.289 79.4997 143.624 74.3839C138.958 69.2681 132.768 65.7924 125.972 64.4722Z" fill="black"/>
</svg>
