<svg width="240" height="160" viewBox="0 0 240 160" fill="none" xmlns="http://www.w3.org/2000/svg">
<path d="M239.277 76.8C238.977 76 230.477 57.2 211.677 38.3C186.577 13.3 154.877 0 119.977 0C85.0771 0 53.3771 13.3 28.2771 38.3C9.47712 57.2 0.977119 76 0.677119 76.8C0.230649 77.8078 0 78.8978 0 80C0 81.1022 0.230649 82.1922 0.677119 83.2C0.977119 84 9.47712 102.8 28.2771 121.7C53.3771 146.7 85.0771 160 119.977 160C154.877 160 186.577 146.7 211.677 121.7C230.477 102.8 238.977 84 239.277 83.2C239.724 82.1922 239.954 81.1022 239.954 80C239.954 78.8978 239.724 77.8078 239.277 76.8ZM119.977 144C89.1771 144 62.2771 132.8 40.0771 110.7C30.9024 101.664 23.1178 91.3186 16.9771 80C23.1095 68.6461 30.8945 58.2662 40.0771 49.2C62.2771 27.2 89.1771 16 119.977 16C150.777 16 177.677 27.2 199.877 49.2C209.06 58.2662 216.845 68.6461 222.977 80C215.777 93.5 184.377 144 119.977 144ZM119.977 32C110.484 32 101.203 34.8152 93.3097 40.0895C85.4162 45.3638 79.2639 52.8603 75.6309 61.6312C71.9979 70.402 71.0473 80.0532 72.8994 89.3643C74.7515 98.6754 79.3231 107.228 86.036 113.941C92.7489 120.654 101.302 125.226 110.613 127.078C119.924 128.93 129.575 127.979 138.346 124.346C147.117 120.713 154.613 114.561 159.888 106.667C165.162 98.7738 167.977 89.4935 167.977 80C167.977 67.2696 162.92 55.0606 153.918 46.0589C144.916 37.0571 132.708 32 119.977 32ZM119.977 112C113.648 112 107.461 110.123 102.199 106.607C96.9365 103.091 92.835 98.0931 90.413 92.2459C87.991 86.3986 87.3573 79.9645 88.592 73.7571C89.8267 67.5497 92.8744 61.8479 97.3497 57.3726C101.825 52.8973 107.527 49.8496 113.734 48.6149C119.942 47.3801 126.376 48.0138 132.223 50.4359C138.07 52.8579 143.068 56.9594 146.584 62.2218C150.1 67.4841 151.977 73.671 151.977 80C151.951 88.4788 148.571 96.6028 142.575 102.598C136.58 108.594 128.456 111.974 119.977 112Z" fill="black"/>
</svg>
